<?xml version="1.0" standalone="no"?>
<!DOCTYPE svg PUBLIC "-//W3C//DTD SVG 20010904//EN"
 "http://www.w3.org/TR/2001/REC-SVG-20010904/DTD/svg10.dtd">
<svg version="1.0" xmlns="http://www.w3.org/2000/svg"
 width="512.000000pt" height="512.000000pt" viewBox="0 0 512.000000 512.000000"
 preserveAspectRatio="xMidYMid meet">
<metadata>
Created by potrace 1.14, written by Peter Selinger 2001-2017
</metadata>
<g transform="translate(0.000000,512.000000) scale(0.100000,-0.100000)"
fill="#000000" stroke="none">
<path d="M2099 4685 c-610 -95 -1194 -533 -1464 -1097 -90 -188 -133 -341
-156 -553 -19 -176 8 -450 50 -518 62 -100 223 -104 289 -7 34 50 36 74 21
179 -62 421 73 815 390 1144 213 220 448 371 714 456 377 120 675 54 781 -173
39 -85 51 -151 50 -296 -5 -624 -545 -1630 -1563 -2909 -90 -112 -167 -215
-172 -228 -25 -68 3 -162 63 -204 41 -30 132 -38 174 -16 39 20 67 52 231 257
884 1108 1433 2065 1577 2749 61 289 57 525 -13 725 -73 209 -250 381 -468
457 -133 46 -338 60 -504 34z"/>
<path d="M4374 4591 c-44 -27 -65 -58 -195 -286 -62 -110 -250 -427 -418 -705
-167 -278 -392 -651 -499 -830 -890 -1483 -1084 -1997 -845 -2244 138 -142
371 -122 736 63 301 154 721 431 1242 819 203 152 231 175 252 216 22 42 14
133 -16 174 -42 60 -136 88 -204 63 -13 -5 -114 -76 -223 -158 -530 -396 -950
-673 -1236 -813 -120 -60 -283 -118 -295 -107 -9 10 33 177 72 283 20 55 87
203 149 329 175 358 343 656 765 1355 866 1437 963 1604 969 1676 5 62 -22
121 -70 155 -45 33 -141 38 -184 10z"/>
</g>
</svg>
